<?xml version="1.0" encoding="UTF-8" standalone="no"?>
<svg
   xmlns:dc="http://purl.org/dc/elements/1.1/"
   xmlns:cc="http://creativecommons.org/ns#"
   xmlns:rdf="http://www.w3.org/1999/02/22-rdf-syntax-ns#"
   xmlns:svg="http://www.w3.org/2000/svg"
   xmlns="http://www.w3.org/2000/svg"
   xmlns:sodipodi="http://sodipodi.sourceforge.net/DTD/sodipodi-0.dtd"
   xmlns:inkscape="http://www.inkscape.org/namespaces/inkscape"
   width="1297mm"
   height="1297mm"
   viewBox="0 0 1297 1297"
   version="1.1"
   id="svg2058"
   inkscape:version="1.0.2-2 (e86c870879, 2021-01-15)"
   sodipodi:docname="calendar-icon.svg">
  <defs
     id="defs2052">
    <pattern
       id="EMFhbasepattern"
       patternUnits="userSpaceOnUse"
       width="6"
       height="6"
       x="0"
       y="0" />
    <pattern
       id="EMFhbasepattern-2"
       patternUnits="userSpaceOnUse"
       width="6"
       height="6"
       x="0"
       y="0" />
    <pattern
       id="EMFhbasepattern-3"
       patternUnits="userSpaceOnUse"
       width="6"
       height="6"
       x="0"
       y="0" />
    <pattern
       id="EMFhbasepattern-7"
       patternUnits="userSpaceOnUse"
       width="6"
       height="6"
       x="0"
       y="0" />
  </defs>
  <sodipodi:namedview
     id="base"
     pagecolor="#ffffff"
     bordercolor="#666666"
     borderopacity="1.0"
     inkscape:pageopacity="0.0"
     inkscape:pageshadow="2"
     inkscape:zoom="0.061871843"
     inkscape:cx="2265.4191"
     inkscape:cy="2639.0344"
     inkscape:document-units="mm"
     inkscape:current-layer="layer1"
     inkscape:document-rotation="0"
     showgrid="false"
     inkscape:window-width="1298"
     inkscape:window-height="1040"
     inkscape:window-x="208"
     inkscape:window-y="0"
     inkscape:window-maximized="0" />
  <metadata
     id="metadata2055">
    <rdf:RDF>
      <cc:Work
         rdf:about="">
        <dc:format>image/svg+xml</dc:format>
        <dc:type
           rdf:resource="http://purl.org/dc/dcmitype/StillImage" />
        <dc:title></dc:title>
      </cc:Work>
    </rdf:RDF>
  </metadata>
  <g
     inkscape:label="Capa 1"
     inkscape:groupmode="layer"
     id="layer1">
    <path
       style="fill:#808080;fill-opacity:1;fill-rule:evenodd;stroke:none;stroke-width:1.05457"
       d="m 29.916439,139.7855 1.102736,-9.92456 1.102735,-9.92457 2.205452,-8.8218 1.102736,-4.41095 2.205452,-4.41088 2.205452,-4.410924 2.205471,-4.410942 2.205452,-4.410885 2.205452,-3.308188 5.513659,-7.719111 6.616375,-6.616375 6.616375,-6.616375 7.719073,-5.513621 7.719111,-4.410942 8.821827,-4.410923 8.821846,-3.308188 8.821827,-2.205433 9.92456,-1.102754 9.92457,-1.102698 h 516.0771 517.1798 l 9.9245,1.102698 9.9247,1.102754 8.8217,2.205433 4.411,1.102755 4.4109,2.205433 4.411,2.20549 4.4108,2.205433 4.411,2.205452 3.3081,2.20549 7.7192,5.513621 6.6163,6.616375 6.6164,6.616375 5.5136,7.719111 4.411,7.719073 4.4108,8.821866 3.3082,8.82183 2.2055,8.8218 2.2054,9.92457 v 9.92456 516.07715 517.17985 9.9245 l -2.2054,9.9246 -2.2055,8.8219 -1.1027,4.4107 -2.2055,4.4112 -2.2054,4.4109 -2.2054,4.4108 -2.2055,4.4109 -2.2055,3.3082 -5.5136,7.7192 -6.6164,6.6162 -6.6163,6.6164 -7.7192,5.5137 -7.7191,5.5136 -8.8218,3.3081 -8.8219,3.3082 -8.8217,2.2056 -9.9247,2.2053 h -9.9245 -517.1798 -516.0771 -9.92457 l -9.92456,-2.2053 -8.821827,-2.2056 -4.410923,-1.1026 -4.410923,-2.2056 -4.410885,-2.2053 -4.410942,-1.1028 -4.410923,-3.3082 -3.308188,-2.2054 -7.719073,-5.5137 -6.616375,-6.6164 -6.616375,-6.6162 -5.513659,-7.7192 -4.410904,-7.7191 -4.410923,-8.8217 -3.308188,-8.8219 -2.205452,-8.8219 -1.102735,-9.9246 -1.102736,-9.9245 V 655.86265 Z m 95.937401,44.10915 V 460.67964 H 644.13641 1162.419 V 183.89465 l -1.1027,-4.41092 v -4.41092 l -1.1028,-4.41089 -2.2054,-4.41094 -1.1028,-4.41092 -2.2054,-3.30815 -6.6163,-6.61638 -3.3082,-3.30822 -3.3083,-2.20543 -3.3082,-3.30819 -4.4108,-1.10272 -8.8219,-3.30819 -8.8218,-1.10273 H 643.0337 171.06575 l -4.41092,1.10273 h -4.41092 l -4.41091,1.10272 -4.41092,2.20547 -4.41092,1.10272 -3.30819,3.30819 -6.61638,5.51365 -3.30819,3.30819 -2.20545,3.30819 -2.20543,3.30815 -2.20549,4.41092 -3.30819,8.82183 z m 0,371.61966 v 573.41899 4.411 5.5136 l 1.10276,4.411 2.20543,3.3082 2.20549,4.4107 2.20543,3.3082 5.51364,7.7192 3.30819,2.2055 3.30819,3.3082 3.30819,2.2054 4.41092,1.1028 8.82183,3.3082 8.82184,1.1027 h 471.96795 473.0707 l 4.4109,-1.1027 h 4.4109 l 4.4109,-1.1028 4.411,-2.2054 4.4108,-1.1028 3.3082,-2.2054 6.6165,-5.5137 3.3081,-3.3082 3.3082,-4.411 2.2054,-3.3082 1.1028,-4.4107 3.3082,-7.7192 1.1027,-9.9246 V 555.51431 H 644.13641 Z M 1014.6533,907.2848 v 94.8347 h -99.2456 v -94.8347 z m -211.72394,0 v 94.8347 h -99.24559 v -94.8347 z m -210.62119,0 v 94.8347 h -99.24561 v -94.8347 z m -212.82665,0 v 94.8347 H 280.23591 V 907.2848 Z M 1014.6533,708.79364 v 94.83466 h -99.2456 v -94.83466 z m -211.72394,0 v 94.83466 h -99.24559 v -94.83466 z m -210.62119,0 v 94.83466 h -99.24561 v -94.83466 z m -212.82665,0 v 94.83466 h -99.24561 v -94.83466 z"
       id="path2663" />
  </g>
</svg>
