<?xml version="1.0" encoding="UTF-8" standalone="no"?>
<svg
   xmlns:dc="http://purl.org/dc/elements/1.1/"
   xmlns:cc="http://creativecommons.org/ns#"
   xmlns:rdf="http://www.w3.org/1999/02/22-rdf-syntax-ns#"
   xmlns:svg="http://www.w3.org/2000/svg"
   xmlns="http://www.w3.org/2000/svg"
   xmlns:sodipodi="http://sodipodi.sourceforge.net/DTD/sodipodi-0.dtd"
   xmlns:inkscape="http://www.inkscape.org/namespaces/inkscape"
   width="1297mm"
   height="1297mm"
   viewBox="0 0 1297 1297"
   version="1.1"
   id="svg2058"
   inkscape:version="1.0.2-2 (e86c870879, 2021-01-15)"
   sodipodi:docname="eliminar.svg">
  <defs
     id="defs2052">
    <pattern
       id="EMFhbasepattern"
       patternUnits="userSpaceOnUse"
       width="6"
       height="6"
       x="0"
       y="0" />
    <pattern
       id="EMFhbasepattern-2"
       patternUnits="userSpaceOnUse"
       width="6"
       height="6"
       x="0"
       y="0" />
    <pattern
       id="EMFhbasepattern-3"
       patternUnits="userSpaceOnUse"
       width="6"
       height="6"
       x="0"
       y="0" />
    <pattern
       id="EMFhbasepattern-7"
       patternUnits="userSpaceOnUse"
       width="6"
       height="6"
       x="0"
       y="0" />
    <pattern
       id="EMFhbasepattern-77"
       patternUnits="userSpaceOnUse"
       width="6"
       height="6"
       x="0"
       y="0" />
    <pattern
       id="EMFhbasepattern-71"
       patternUnits="userSpaceOnUse"
       width="6"
       height="6"
       x="0"
       y="0" />
    <pattern
       id="EMFhbasepattern-20"
       patternUnits="userSpaceOnUse"
       width="6"
       height="6"
       x="0"
       y="0" />
    <pattern
       id="EMFhbasepattern-75"
       patternUnits="userSpaceOnUse"
       width="6"
       height="6"
       x="0"
       y="0" />
    <pattern
       id="EMFhbasepattern-5"
       patternUnits="userSpaceOnUse"
       width="6"
       height="6"
       x="0"
       y="0" />
    <pattern
       id="EMFhbasepattern-0"
       patternUnits="userSpaceOnUse"
       width="6"
       height="6"
       x="0"
       y="0" />
    <pattern
       id="EMFhbasepattern-6"
       patternUnits="userSpaceOnUse"
       width="6"
       height="6"
       x="0"
       y="0" />
  </defs>
  <sodipodi:namedview
     id="base"
     pagecolor="#ffffff"
     bordercolor="#666666"
     borderopacity="1.0"
     inkscape:pageopacity="0.0"
     inkscape:pageshadow="2"
     inkscape:zoom="0.12374369"
     inkscape:cx="2438.1765"
     inkscape:cy="2772.2676"
     inkscape:document-units="mm"
     inkscape:current-layer="layer2"
     inkscape:document-rotation="0"
     showgrid="false"
     inkscape:window-width="1298"
     inkscape:window-height="1040"
     inkscape:window-x="208"
     inkscape:window-y="0"
     inkscape:window-maximized="1"
     inkscape:snap-text-baseline="true" />
  <metadata
     id="metadata2055">
    <rdf:RDF>
      <cc:Work
         rdf:about="">
        <dc:format>image/svg+xml</dc:format>
        <dc:type
           rdf:resource="http://purl.org/dc/dcmitype/StillImage" />
        <dc:title />
      </cc:Work>
    </rdf:RDF>
  </metadata>
  <g
     inkscape:label="Capa 1"
     inkscape:groupmode="layer"
     id="layer1" />
  <g
     inkscape:groupmode="layer"
     id="layer2"
     inkscape:label="Capa 2">
    <text
       xml:space="preserve"
       style="font-style:normal;font-weight:normal;font-size:753.852px;line-height:1.25;font-family:sans-serif;fill:#ffffff;fill-opacity:1;stroke:none;stroke-width:18.8464;"
       x="322.20334"
       y="1022.0596"
       id="text851"
       transform="scale(1.1486024,0.87062328)"><tspan
         sodipodi:role="line"
         id="tspan849"
         x="322.20334"
         y="1022.0596"
         style="stroke-width:18.8464;fill:#ffffff;">X</tspan></text>
    <path
       style="fill:#ffffff;fill-opacity:1;fill-rule:evenodd;stroke:none;stroke-width:0.532765"
       d="m 167.71909,653.90862 v -12.25608 l 0.55709,-12.25609 0.5571,-11.69918 1.11418,-12.25609 1.6713,-12.25608 1.67129,-11.69903 1.67129,-11.69904 2.22839,-11.69903 2.78548,-11.69903 2.78551,-11.69905 3.34258,-11.14208 3.34258,-11.14187 3.34259,-11.14187 4.45676,-11.14208 3.89969,-10.58472 4.45678,-11.14208 5.01387,-10.58472 4.45676,-10.5849 5.57099,-10.02775 5.57098,-10.58493 5.57096,-10.02775 6.12808,-9.47057 6.12806,-10.02775 6.12806,-9.4706 6.68517,-9.47078 6.68517,-9.47058 7.24227,-8.91362 7.24227,-8.91342 7.79936,-8.91363 7.24227,-8.35645 8.35645,-8.35647 7.79936,-8.35645 8.35645,-7.7993 8.35647,-7.79949 8.91355,-7.79929 8.91355,-7.24227 8.91355,-7.24227 9.47065,-7.24226 9.47067,-6.68517 9.47065,-6.12807 9.47064,-6.68517 10.02775,-6.12806 10.02775,-5.57099 10.02775,-5.57097 10.58486,-5.57096 10.58485,-5.01388 10.58483,-5.01387 10.58485,-4.45679 11.14193,-4.45678 11.14197,-4.45676 11.14193,-3.89969 11.14195,-3.34258 11.69903,-3.34259 11.14196,-3.34258 11.69905,-2.78548 12.25611,-2.2284 23.39813,-4.45677 12.25613,-1.67128 12.25613,-1.11422 12.25611,-1.11418 12.25618,-0.55708 12.25611,-0.55712 12.81326,-0.5571 12.25612,0.5571 12.25613,0.55712 12.25613,0.55708 12.25617,1.11418 12.25613,1.11422 12.25613,1.67128 11.69907,2.22838 12.25611,2.22839 11.699,2.2284 11.69909,2.78548 11.14194,3.34258 11.69901,3.34259 11.14194,3.34258 11.14196,3.89969 11.14196,4.45676 11.14195,4.45678 10.58483,4.45679 10.58484,5.01387 10.58483,5.01388 10.58489,5.57096 10.02774,5.57097 10.02773,5.57099 10.02777,6.12806 9.47066,6.68517 18.94128,12.81324 9.47066,7.24226 8.91357,7.24227 8.91354,7.24227 8.91353,7.79929 16.71294,15.59879 8.35647,8.35645 7.7994,8.35647 7.7993,8.35645 7.2423,8.91363 7.2422,8.91342 7.2423,8.91362 6.6852,9.47058 6.6852,9.47078 6.6851,9.4706 6.1281,10.02775 5.5709,9.47057 6.1281,10.02775 5.0139,10.58493 5.5709,10.02775 5.0139,10.5849 4.4568,10.58472 4.4568,11.14208 4.4568,10.58472 3.8997,11.14208 3.3425,11.14187 3.8997,11.14187 2.7855,11.14208 2.7855,11.69905 2.7854,11.69903 2.2285,11.69903 1.6712,11.69904 1.6713,11.69903 1.6713,12.25608 1.1142,12.25609 0.5571,11.69918 0.5571,12.25609 v 12.25608 12.25624 l -0.5571,12.25608 -0.5571,12.25609 -1.1142,12.25623 -1.6713,11.69903 -1.6713,12.25624 -1.6712,11.69903 -2.2285,11.69903 -2.7854,11.69903 -2.7855,11.14183 -2.7855,11.69903 -3.8997,11.14183 -3.3425,11.14213 -3.8997,11.14183 -4.4568,10.58492 -4.4568,11.14198 -4.4568,10.58492 -5.0139,10.02772 -5.5709,10.58458 -5.0139,10.02787 -6.1281,10.02772 -5.5709,10.02772 -6.1281,10.02772 -6.6851,9.47081 -6.6852,9.47067 -6.6852,9.47052 -7.2423,8.91361 -7.2422,8.91361 -7.2423,8.91346 -7.7993,8.35641 -7.7994,8.35641 -8.35647,8.35656 -8.35644,7.7995 -8.3565,7.79922 -8.91353,7.7993 -8.91354,7.2423 -8.91357,7.2423 -9.47066,6.6853 -8.91354,6.6851 -10.02774,6.6852 -9.47066,6.1279 -10.02777,6.1281 -10.02773,6.1282 -10.02774,5.5708 -10.58489,5.5711 -10.58483,5.0138 -10.58484,5.014 -10.58483,4.4567 -11.14195,4.4567 -11.14196,3.8997 -11.14196,3.8997 -11.14194,3.8998 -11.69901,3.3426 -11.14194,2.7854 -11.69909,2.7855 -11.699,2.7855 -23.95518,3.8996 -12.25613,1.6713 -12.25613,1.6713 -12.25617,1.1142 -12.25613,0.5571 -12.25613,0.557 h -12.25612 -12.81326 l -12.25611,-0.557 -12.25618,-0.5571 -12.25611,-1.1142 -12.25613,-1.6713 -12.25613,-1.6713 -11.69908,-1.6714 -11.69905,-2.2282 -12.25611,-2.7855 -11.69905,-2.7855 -11.14196,-2.7854 -11.69903,-3.3426 -11.14195,-3.8998 -11.14193,-3.8997 -11.14197,-3.8997 -11.14193,-4.4567 -10.58485,-4.4567 -10.58483,-5.014 -10.58485,-5.0138 -10.58486,-5.5711 -10.02775,-5.5708 -10.02775,-6.1282 -10.02775,-6.1281 -9.47064,-6.1279 -18.94132,-13.3703 -9.47065,-6.6853 -8.91355,-7.2423 -8.91355,-7.2423 -8.91355,-7.7993 -16.71292,-15.59872 -7.79936,-8.35656 -8.35645,-8.35641 -7.24227,-8.35641 -7.79936,-8.91346 -7.24227,-8.91361 -7.24227,-8.91361 -6.68517,-9.47052 -6.68517,-9.47067 -6.12806,-9.47081 -6.12806,-10.02772 -6.12808,-10.02772 -5.57096,-10.02772 -5.57098,-10.02787 -5.57099,-10.58458 -4.45676,-10.02772 -5.01387,-10.58492 -4.45678,-11.14198 -3.89969,-10.58492 -4.45676,-11.14183 -3.34259,-11.14213 -3.34258,-11.14183 -3.34258,-11.69903 -2.78551,-11.14183 -2.78548,-11.69903 -2.22839,-11.69903 -1.67129,-11.69903 -1.67129,-12.25624 -1.6713,-11.69903 -1.11418,-12.25623 -0.5571,-12.25609 -0.55709,-12.25608 z m -145.959475,0 v -15.59856 l 1.114187,-16.15606 0.557104,-15.59871 1.671292,-16.15576 1.67129,-15.04166 2.228397,-15.59856 2.785478,-15.59881 2.78548,-15.04162 3.342584,-15.04163 3.899686,-15.04162 3.899688,-15.04161 4.456771,-14.48447 5.013875,-14.48466 5.013874,-14.48447 5.57098,-13.9275 5.570959,-13.92729 6.128081,-13.92749 6.685167,-13.37034 6.685167,-13.92749 7.24225,-13.37034 7.242275,-12.81317 7.79935,-12.81317 7.79937,-12.81336 8.35646,-12.25601 8.91355,-12.25621 8.91355,-12.25614 8.91357,-11.69904 9.47065,-11.69904 10.02775,-11.14194 10.02775,-11.14196 10.02775,-11.14193 10.58485,-10.58486 11.14193,-10.58485 10.58486,-10.02774 11.69904,-10.02776 11.69904,-9.47065 11.69905,-9.47064 11.69903,-8.91357 12.25613,-8.91355 12.81324,-8.35644 12.25613,-8.35647 12.81325,-7.79936 13.37034,-7.79936 13.37033,-7.24227 13.37033,-7.24227 13.92743,-6.685171 13.37032,-6.128058 14.48454,-6.128058 13.92742,-5.570988 14.48454,-5.570974 14.48452,-5.013875 14.48453,-4.456776 15.04161,-4.456761 15.04162,-3.899692 15.04163,-3.899692 15.59874,-3.342579 15.59872,-2.785479 15.04163,-2.78548 16.1558,-1.671296 15.59871,-2.228396 16.15582,-1.114183 15.59874,-1.114212 16.15583,-0.557084 h 16.71293 16.15581 l 16.15581,0.557084 16.15582,1.114212 15.59871,1.114183 16.15581,2.228396 15.59875,1.671296 15.59871,2.78548 15.04162,2.785479 15.5987,3.342579 15.04165,3.899692 15.04164,3.899692 15.04163,4.456761 14.48454,4.456776 14.48452,5.013875 14.48451,5.570974 14.48453,5.570988 13.92741,6.128058 13.92743,6.128058 13.37034,6.685171 13.3703,7.24227 13.37036,7.24227 13.37034,7.79936 12.81326,7.79936 12.81322,8.35647 12.2561,8.35644 12.2562,8.91355 12.2561,8.91357 11.6991,9.47064 11.1419,9.47065 11.699,10.02776 11.142,10.02774 10.5848,10.58485 10.5848,10.58486 10.0278,11.14193 10.0277,11.14196 10.0278,11.14194 9.4707,11.69904 9.4706,11.69904 8.9136,12.25614 8.3564,12.25621 8.3565,12.25601 7.7994,12.81336 7.7993,12.81317 7.7993,12.81317 6.6852,13.37034 7.2423,13.92749 6.1281,13.37034 6.128,13.92749 6.1281,13.92729 5.571,13.9275 5.0139,14.48447 4.4567,14.48466 4.4568,14.48447 4.4568,15.04161 3.3426,15.04162 3.3426,15.04163 2.7854,15.04162 2.7856,15.59881 2.2283,15.59856 1.6713,15.04166 1.6713,16.15576 1.1142,15.59871 0.5571,16.15606 v 15.59856 16.15591 l -0.5571,16.15577 -1.1142,15.59885 -1.6713,15.59856 -1.6713,15.59871 -2.2283,15.59886 -2.7856,15.59856 -2.7854,15.04165 -3.3426,15.04166 -3.3426,15.0415 -4.4568,14.48475 -4.4568,15.04166 -4.4567,14.48445 -5.0139,13.92735 -5.571,14.48445 -6.1281,13.92755 -6.128,13.92725 -6.1281,13.37034 -7.2423,13.37035 -6.6852,13.37034 -7.7993,13.37034 -7.7993,12.81344 -7.7994,12.81314 -8.3565,12.25624 -8.3564,12.2559 -8.9136,12.2563 -9.4706,11.699 -9.4707,11.699 -10.0278,11.1419 -10.0277,11.1421 -10.0278,11.1418 -10.5848,10.5849 -10.5848,10.5848 -11.142,10.0277 -11.699,10.0277 -11.1419,9.4709 -11.6991,9.4706 -12.2561,8.9136 -12.2562,8.9134 -12.2561,8.3565 -12.81322,8.3564 -12.81326,7.7995 -13.37034,7.7994 -13.37036,7.2423 -13.3703,6.6851 -13.37034,6.6852 -13.92743,6.6851 -13.92741,6.1281 -14.48453,5.571 -14.48451,5.5708 -14.48452,5.0139 -14.48454,4.4568 -15.04163,4.4568 -15.04164,3.8997 -15.04165,3.8995 -15.5987,2.7858 -15.04162,3.3423 -15.59871,2.2285 -15.59875,2.2284 -16.15581,1.6713 -15.59871,1.6713 -16.15582,1.1141 -16.15581,0.5572 h -16.15581 -16.71293 l -16.15583,-0.5572 -15.59874,-1.1141 -16.15582,-1.6713 -15.59871,-1.6713 -16.1558,-2.2284 -15.04163,-2.2285 -15.59872,-3.3423 -15.59874,-2.7858 -15.04163,-3.8995 -15.04162,-3.8997 -15.04161,-4.4568 -14.48453,-4.4568 -14.48452,-5.0139 -14.48454,-5.5708 -13.92742,-5.571 -14.48454,-6.1281 -13.37032,-6.6851 -13.92743,-6.6852 -13.37033,-6.6851 -13.37033,-7.2423 -13.37034,-7.7994 -12.81325,-7.7995 -12.25613,-8.3564 -12.81324,-8.3565 -12.25613,-8.9134 -11.69903,-8.9136 -11.69905,-9.4706 -11.69904,-9.4709 -11.69904,-10.0277 -10.58486,-10.0277 -11.14193,-10.5848 -10.58485,-10.5849 -10.02775,-11.1418 -10.02775,-11.1421 -10.02775,-11.1419 -9.47065,-11.699 -8.91357,-11.699 -8.91355,-12.2563 -8.91355,-12.2559 -8.35646,-12.25624 -7.79937,-12.81314 -7.79935,-12.81344 -7.242275,-13.37034 -7.24225,-13.37034 -6.685167,-13.37035 -6.685167,-13.37034 -6.128081,-13.92725 -5.570959,-13.92755 -5.57098,-14.48445 -5.013874,-13.92735 -5.013875,-14.48445 -4.456771,-15.04166 -3.899688,-14.48475 -3.899686,-15.0415 -3.342584,-15.04166 -2.78548,-15.04165 -2.785478,-15.59856 -2.228397,-15.59886 -1.67129,-15.59871 -1.671292,-15.59856 -0.557104,-15.59885 -1.114187,-16.15577 z"
       id="path886" />
  </g>
</svg>
