<?xml version="1.0" encoding="UTF-8" standalone="no"?>
<svg
   xmlns:dc="http://purl.org/dc/elements/1.1/"
   xmlns:cc="http://creativecommons.org/ns#"
   xmlns:rdf="http://www.w3.org/1999/02/22-rdf-syntax-ns#"
   xmlns:svg="http://www.w3.org/2000/svg"
   xmlns="http://www.w3.org/2000/svg"
   xmlns:sodipodi="http://sodipodi.sourceforge.net/DTD/sodipodi-0.dtd"
   xmlns:inkscape="http://www.inkscape.org/namespaces/inkscape"
   width="1297mm"
   height="1297mm"
   viewBox="0 0 1297 1297"
   version="1.1"
   id="svg2058"
   inkscape:version="1.0.2-2 (e86c870879, 2021-01-15)"
   sodipodi:docname="heart-outlined.svg">
  <defs
     id="defs2052">
    <pattern
       id="EMFhbasepattern"
       patternUnits="userSpaceOnUse"
       width="6"
       height="6"
       x="0"
       y="0" />
    <pattern
       id="EMFhbasepattern-2"
       patternUnits="userSpaceOnUse"
       width="6"
       height="6"
       x="0"
       y="0" />
    <pattern
       id="EMFhbasepattern-3"
       patternUnits="userSpaceOnUse"
       width="6"
       height="6"
       x="0"
       y="0" />
    <pattern
       id="EMFhbasepattern-7"
       patternUnits="userSpaceOnUse"
       width="6"
       height="6"
       x="0"
       y="0" />
    <pattern
       id="EMFhbasepattern-77"
       patternUnits="userSpaceOnUse"
       width="6"
       height="6"
       x="0"
       y="0" />
    <pattern
       id="EMFhbasepattern-71"
       patternUnits="userSpaceOnUse"
       width="6"
       height="6"
       x="0"
       y="0" />
    <pattern
       id="EMFhbasepattern-20"
       patternUnits="userSpaceOnUse"
       width="6"
       height="6"
       x="0"
       y="0" />
    <pattern
       id="EMFhbasepattern-75"
       patternUnits="userSpaceOnUse"
       width="6"
       height="6"
       x="0"
       y="0" />
    <pattern
       id="EMFhbasepattern-38"
       patternUnits="userSpaceOnUse"
       width="6"
       height="6"
       x="0"
       y="0" />
    <pattern
       id="EMFhbasepattern-5"
       patternUnits="userSpaceOnUse"
       width="6"
       height="6"
       x="0"
       y="0" />
  </defs>
  <sodipodi:namedview
     id="base"
     pagecolor="#ffffff"
     bordercolor="#666666"
     borderopacity="1.0"
     inkscape:pageopacity="0.0"
     inkscape:pageshadow="2"
     inkscape:zoom="0.12374369"
     inkscape:cx="1979.8527"
     inkscape:cy="2772.2676"
     inkscape:document-units="mm"
     inkscape:current-layer="layer1"
     inkscape:document-rotation="0"
     showgrid="false"
     inkscape:window-width="1298"
     inkscape:window-height="1040"
     inkscape:window-x="208"
     inkscape:window-y="0"
     inkscape:window-maximized="0" />
  <metadata
     id="metadata2055">
    <rdf:RDF>
      <cc:Work
         rdf:about="">
        <dc:format>image/svg+xml</dc:format>
        <dc:type
           rdf:resource="http://purl.org/dc/dcmitype/StillImage" />
        <dc:title></dc:title>
      </cc:Work>
    </rdf:RDF>
  </metadata>
  <g
     inkscape:label="Capa 1"
     inkscape:groupmode="layer"
     id="layer1" />
  <g
     inkscape:groupmode="layer"
     id="layer2"
     inkscape:label="Capa 2"
     style="display:inline"
     sodipodi:insensitive="true">
    <path
       style="fill:#000000;fill-opacity:1;fill-rule:evenodd;stroke:none;stroke-width:1.01345"
       d="m 186.39043,464.58619 v -12.71677 l 1.05971,-12.71694 2.1195,-11.65729 2.11945,-12.71678 3.17918,-11.6568 3.17919,-11.65697 3.17921,-11.65729 5.29863,-10.59701 4.23895,-10.5975 6.35839,-10.5975 5.29865,-10.597 6.35839,-9.53754 7.41813,-9.53769 7.41813,-9.53753 7.4181,-8.47808 8.47789,-9.53769 8.47782,-7.41778 8.47785,-7.41827 9.5376,-7.41826 9.53758,-7.41786 10.59732,-6.35839 10.59732,-5.29892 10.59731,-5.29853 10.59732,-5.29854 10.59733,-4.23905 11.65703,-4.23906 11.65704,-3.17918 11.65708,-2.11934 12.71678,-2.11934 11.65703,-2.11972 12.71678,-1.05947 h 12.71679 12.71678 l 12.71679,2.11932 13.77652,3.17921 13.77648,3.17918 13.77652,5.29854 14.83623,5.29891 28.61275,12.71679 14.83629,7.41786 13.77648,7.41832 13.77652,7.41811 12.71678,8.47773 11.65704,8.47774 11.65707,7.41827 10.5973,8.47772 8.47786,7.41827 9.53761,-7.41827 9.53758,-8.47772 11.65704,-7.41827 11.65703,-8.47774 26.4933,-15.89584 13.77652,-7.41832 14.83624,-7.41786 13.77653,-6.35839 14.83622,-6.3584 14.83624,-5.29891 13.77653,-5.29854 13.77651,-3.17918 13.77649,-3.17921 12.71679,-2.11932 h 6.35839 6.3584 12.71676 l 12.71678,1.05947 11.65707,2.11972 12.71679,2.11934 11.65703,2.11934 11.65704,3.17918 5.29868,2.11972 6.3584,2.11934 10.59728,4.23905 10.59734,5.29854 10.59734,5.29853 10.59727,5.29892 10.59734,6.35839 9.53759,7.41786 9.53755,7.41826 8.4779,7.41827 8.4778,7.41778 8.4779,9.53769 7.4181,8.47808 7.4181,9.53753 7.4181,9.53769 6.3584,9.53754 6.3585,10.597 5.2986,10.5975 4.2389,10.5975 5.2987,10.59701 3.1791,11.65729 4.239,11.65697 2.1195,11.6568 2.1194,12.71678 2.1195,11.65729 1.0597,12.71694 v 12.71677 8.47772 l -1.0597,9.53755 -1.0597,9.53753 -1.0598,8.47773 -1.0597,9.53754 -2.1194,8.47823 -4.239,16.95547 v 2.1196 3.17923 l -3.1792,8.47774 -3.1792,9.53753 -8.4779,19.07524 -4.2388,9.53754 -4.239,9.53769 -5.2987,9.53753 -4.2388,9.53754 -11.6571,19.07524 -11.6571,19.07507 -12.7167,19.07522 -13.7766,19.07524 -13.77649,19.07507 -14.83624,19.07524 -14.83622,18.01526 -15.89598,18.01577 -15.89598,18.01528 -16.95572,18.01527 -16.95571,16.95579 -16.95569,15.89601 -33.91143,31.792 -16.95569,14.83603 -16.95572,13.77674 -15.89597,12.71676 -16.95572,12.71678 -15.89598,11.65696 -15.89597,10.59734 -14.83623,9.53769 -14.83624,8.47774 -13.77652,7.4181 -12.71678,6.35847 -12.71679,5.2985 -11.65703,4.23904 -5.29869,1.05996 -5.29863,2.11927 h -4.23895 l -5.29866,1.05979 h -4.23892 l -9.53759,-1.05979 -10.59729,-3.17923 -11.65708,-4.23904 -12.71679,-5.2985 -12.71676,-6.35847 -7.4181,-3.17906 -6.35839,-4.23904 -14.83626,-8.47774 -14.83624,-9.53769 -15.89599,-10.59734 -15.89596,-11.65696 -16.95572,-12.71678 -15.89599,-12.71676 -16.95566,-13.77674 -16.95573,-14.83603 -16.95573,-15.896 -16.95568,-15.896 -16.95571,-15.89601 -16.95573,-16.95579 -15.89596,-18.01527 -16.95569,-18.01528 -15.89598,-18.01577 -14.83627,-18.01526 -14.83622,-19.07524 -13.77653,-19.07507 -13.77652,-19.07524 -12.71679,-19.07522 -11.65704,-19.07507 -10.59727,-19.07524 -10.59734,-19.07507 -8.47785,-19.07523 -8.47787,-19.07524 -6.3584,-18.01527 v -3.17923 -1.0598 -1.0598 l -2.11945,-8.47773 -2.11949,-8.47774 -3.17914,-18.01577 -2.1195,-18.01526 -1.05971,-9.53755 z m -153.661111,-45.56874 1.05975,-18.01528 1.059701,-18.01559 1.05975,-9.53769 1.059748,-9.53755 1.059701,-8.47773 2.119484,-8.47774 4.238901,-18.01559 4.238949,-16.95547 6.358384,-16.95598 6.358385,-15.89583 7.41815,-15.896 7.418084,-15.896 8.477884,-14.83613 9.537584,-14.83648 10.597286,-13.77627 10.59733,-13.77664 11.65704,-13.77663 11.65708,-11.65693 12.71673,-12.71678 12.71679,-10.59745 13.77652,-10.59706 13.77654,-10.5974 14.83621,-9.53754 14.83623,-8.47769 15.896,-8.478118 15.89596,-6.3584 8.47789,-3.179185 8.47782,-3.179199 15.896,-6.358385 8.47783,-2.119335 8.47788,-2.119336 18.01542,-4.239065 18.01547,-3.179183 18.01542,-2.119336 18.01543,-2.119729 h 19.07517 16.95572 l 18.01543,1.059865 16.95572,2.119336 16.95572,3.1792 16.95568,4.239048 15.89597,4.239049 15.89599,5.298535 15.89597,5.298535 15.89596,6.358385 14.83629,7.418249 13.77648,8.477739 14.83627,8.47805 13.77648,8.47769 12.71679,10.59741 12.71677,9.53759 12.71679,11.65693 12.71677,-10.59745 12.71679,-10.59707 13.77653,-9.53757 13.7765,-9.53753 13.77651,-7.41821 14.83627,-8.477715 15.89597,-6.358399 14.83623,-7.41825 15.89597,-5.298519 15.89598,-5.298914 16.95572,-4.238671 16.95569,-3.179199 16.95572,-3.1792 16.95571,-2.119713 16.95569,-1.059472 h 18.01545 19.07519 l 19.07517,2.119336 9.53758,1.059849 8.47783,1.059487 19.07518,3.179183 16.95571,4.239065 18.01544,4.239049 16.95575,6.358384 16.9557,6.3584 16.9557,7.417871 15.896,8.478098 14.8362,8.4777 15.896,9.53753 13.7765,10.59741 7.418,5.29854 6.3585,6.3584 13.7765,11.65691 12.7168,11.6573 12.7167,12.71678 5.2987,7.41786 6.3584,6.3584 10.5973,13.77664 10.5974,14.83611 9.5375,14.8365 9.5376,15.89599 7.4182,15.89602 7.4181,15.89599 7.418,16.95531 5.2988,16.95596 5.2986,18.01528 4.2389,18.01559 3.1791,18.01544 1.0598,9.53753 1.0597,9.53755 1.0599,18.01543 1.0596,19.07507 -1.0596,25.43353 -2.1196,24.37407 -4.2389,23.31393 -5.2987,23.31428 -4.2388,14.83603 -6.3585,16.9558 -6.3583,18.01544 -11.6572,26.49333 -11.6569,25.43353 -13.7765,25.43355 -14.8363,26.49349 -14.8363,25.43354 -16.9557,25.43353 -16.9557,25.43355 -18.0154,24.37373 -18.0154,24.37374 -19.0752,24.37406 -20.1349,23.31377 -20.1349,23.31428 -20.1349,22.25446 -20.13491,22.25431 -21.19464,21.1945 -21.19463,20.13504 -21.19463,19.07522 -10.59732,9.53754 -10.59733,9.53753 -21.19462,18.0153 -20.13492,16.9559 -21.19462,14.8361 -20.13492,14.8365 -19.07517,13.7762 -20.13488,12.7168 -18.01545,10.5975 -18.01544,9.5376 -18.01542,8.4777 -8.47789,4.239 -8.47782,3.1793 -15.89599,5.2984 -14.83624,4.2391 -13.77651,2.1194 -12.71679,1.0598 -12.71679,-1.0598 -7.41813,-1.0594 -7.41808,-1.06 -7.41813,-2.1193 -8.47786,-2.1198 -16.95571,-6.3583 -18.01542,-7.4179 -19.07517,-9.538 -20.13492,-10.597 -20.13491,-11.657 -21.19463,-13.7766 -22.25436,-14.8362 -22.25438,-15.8958 -22.25437,-16.956 -11.65703,-8.4777 -11.65706,-9.5375 -23.31408,-19.07527 -23.31412,-20.13503 -22.25436,-21.1945 -23.3141,-22.25431 -23.31407,-22.2543 -22.25441,-24.37407 -22.25433,-24.37373 -10.59733,-11.65696 -10.59733,-12.71678 -21.19463,-25.43353 -20.13489,-26.4935 -19.07518,-25.43354 -19.07518,-27.55281 -18.01542,-26.49349 -8.47783,-13.77657 -7.41816,-13.77624 -15.895965,-27.5533 -7.418134,-13.77624 -6.358384,-13.77673 -12.716785,-28.61276 -11.657035,-27.55281 -9.537584,-27.5533 v -2.11944 l -1.05975,-2.11927 1.05975,-3.17923 -3.1792,-12.71676 -3.1792,-12.71678 -3.179184,-12.71677 -2.119451,-12.71676 -2.119498,-13.77673 -1.059701,-13.77657 -1.05975,-13.77624 z"
       id="path2880" />
  </g>
</svg>
