<?xml version="1.0" encoding="UTF-8" standalone="no"?>
<svg
   xmlns:dc="http://purl.org/dc/elements/1.1/"
   xmlns:cc="http://creativecommons.org/ns#"
   xmlns:rdf="http://www.w3.org/1999/02/22-rdf-syntax-ns#"
   xmlns:svg="http://www.w3.org/2000/svg"
   xmlns="http://www.w3.org/2000/svg"
   xmlns:sodipodi="http://sodipodi.sourceforge.net/DTD/sodipodi-0.dtd"
   xmlns:inkscape="http://www.inkscape.org/namespaces/inkscape"
   width="1297mm"
   height="1297mm"
   viewBox="0 0 1297 1297"
   version="1.1"
   id="svg2058"
   inkscape:version="1.0.2-2 (e86c870879, 2021-01-15)"
   sodipodi:docname="save-icon.svg">
  <defs
     id="defs2052">
    <pattern
       id="EMFhbasepattern"
       patternUnits="userSpaceOnUse"
       width="6"
       height="6"
       x="0"
       y="0" />
    <pattern
       id="EMFhbasepattern-2"
       patternUnits="userSpaceOnUse"
       width="6"
       height="6"
       x="0"
       y="0" />
    <pattern
       id="EMFhbasepattern-3"
       patternUnits="userSpaceOnUse"
       width="6"
       height="6"
       x="0"
       y="0" />
    <pattern
       id="EMFhbasepattern-7"
       patternUnits="userSpaceOnUse"
       width="6"
       height="6"
       x="0"
       y="0" />
    <pattern
       id="EMFhbasepattern-77"
       patternUnits="userSpaceOnUse"
       width="6"
       height="6"
       x="0"
       y="0" />
    <pattern
       id="EMFhbasepattern-71"
       patternUnits="userSpaceOnUse"
       width="6"
       height="6"
       x="0"
       y="0" />
    <pattern
       id="EMFhbasepattern-20"
       patternUnits="userSpaceOnUse"
       width="6"
       height="6"
       x="0"
       y="0" />
    <pattern
       id="EMFhbasepattern-75"
       patternUnits="userSpaceOnUse"
       width="6"
       height="6"
       x="0"
       y="0" />
    <pattern
       id="EMFhbasepattern-5"
       patternUnits="userSpaceOnUse"
       width="6"
       height="6"
       x="0"
       y="0" />
    <pattern
       id="EMFhbasepattern-0"
       patternUnits="userSpaceOnUse"
       width="6"
       height="6"
       x="0"
       y="0" />
    <pattern
       id="EMFhbasepattern-6"
       patternUnits="userSpaceOnUse"
       width="6"
       height="6"
       x="0"
       y="0" />
    <pattern
       id="EMFhbasepattern-8"
       patternUnits="userSpaceOnUse"
       width="6"
       height="6"
       x="0"
       y="0" />
  </defs>
  <sodipodi:namedview
     id="base"
     pagecolor="#ffffff"
     bordercolor="#666666"
     borderopacity="1.0"
     inkscape:pageopacity="0.0"
     inkscape:pageshadow="2"
     inkscape:zoom="0.067126532"
     inkscape:cx="-974.14144"
     inkscape:cy="613.41601"
     inkscape:document-units="mm"
     inkscape:current-layer="layer2"
     inkscape:document-rotation="0"
     showgrid="false"
     inkscape:window-width="1920"
     inkscape:window-height="1017"
     inkscape:window-x="-8"
     inkscape:window-y="-8"
     inkscape:window-maximized="1"
     inkscape:snap-text-baseline="true" />
  <metadata
     id="metadata2055">
    <rdf:RDF>
      <cc:Work
         rdf:about="">
        <dc:format>image/svg+xml</dc:format>
        <dc:type
           rdf:resource="http://purl.org/dc/dcmitype/StillImage" />
        <dc:title></dc:title>
      </cc:Work>
    </rdf:RDF>
  </metadata>
  <g
     inkscape:label="Capa 1"
     inkscape:groupmode="layer"
     id="layer1" />
  <g
     inkscape:groupmode="layer"
     id="layer2"
     inkscape:label="Capa 2">
    <path
       style="fill:#ffffff;fill-opacity:1;fill-rule:nonzero;stroke:none;stroke-width:0.900244"
       d="m 794.99439,166.55697 h -325.7102 v 143.08639 l 0.9415,3.76555 v 3.76555 l 0.9414,3.76521 1.8826,3.76555 0.9415,2.82407 1.8826,3.76555 2.8241,2.82407 1.8826,2.82408 5.6481,4.70668 3.7656,1.8826 2.8241,1.88295 7.5307,1.8826 8.4723,0.94147 h 247.5775 3.7652 l 3.7656,-0.94147 3.7655,-0.94147 3.7652,-0.94113 3.7656,-1.88295 2.824,-1.8826 2.8241,-2.82408 2.8241,-1.8826 4.7067,-5.64815 1.8829,-3.76555 1.8826,-2.82407 1.8826,-7.53076 0.9415,-7.5311 z m 113.9045,991.25063 v -349.24397 -4.707 l -0.9415,-3.7652 -0.9414,-3.7655 -0.9412,-2.8241 -1.8829,-3.7656 -1.8826,-2.824 -2.8241,-3.7653 -1.8826,-2.824 -5.6482,-4.707 -3.7655,-1.8827 -2.8241,-0.9414 -7.5307,-2.8241 -7.5311,-0.9411 h -440.5559 l -3.7652,0.9411 h -4.707 l -3.7652,0.9415 -2.8241,1.8826 -3.7655,0.9414 -2.8241,1.8827 -2.8241,2.824 -2.8241,1.883 -4.7066,6.5893 -2.8241,2.824 -0.9415,3.7656 -2.8241,6.5896 v 8.4722 349.24397 z M 1246.8465,506.38754 v 649.53746 10.3548 l -1.8826,10.3548 -2.8241,10.3552 -0.9414,4.7067 -1.8826,4.7067 -4.707,9.4137 -4.7067,8.4722 -6.5897,7.5307 -6.5892,7.5311 -7.5308,6.5893 -7.5311,5.6482 -8.4722,5.6481 -9.4134,3.7656 -9.4137,3.7655 -9.4137,2.8241 -10.3548,1.8826 h -5.6482 -5.6481 H 1010.5656 908.89889 391.15149 288.54332 155.81176 145.45693 l -10.35483,-1.8826 -10.35518,-2.8241 -4.70668,-1.8829 -4.70668,-1.8826 -8.47222,-3.7656 -8.472227,-5.6481 -8.47223,-5.6482 -7.53109,-6.5893 -6.58929,-7.5311 -5.64815,-7.5307 -5.64815,-8.4722 -3.76555,-9.4137 -3.76521,-9.4134 -2.82407,-10.3552 -0.94148,-10.3548 -0.94147,-4.7067 V 1155.925 661.71173 168.43957 l 0.94147,-10.35483 0.94148,-10.35483 2.82407,-10.35517 1.88261,-4.70668 1.8826,-4.70668 3.76555,-8.47223 5.64815,-8.47223 5.64815,-8.47223 6.58929,-7.53109 7.53109,-6.58929 8.47223,-5.64815 8.472227,-5.64815 8.47222,-3.76555 9.41336,-3.76555 10.35518,-2.82407 10.35483,-0.94113 5.64815,-0.94148 h 4.70668 396.31213 397.2532 107.31491 l 191.096,260.75646 z m -958.30318,264.52169 0.94148,-10.3549 0.94147,-10.3551 2.82407,-10.3549 1.88261,-4.7066 1.88294,-4.7071 4.70668,-8.4722 4.70668,-8.4722 5.64815,-8.4722 6.58963,-7.5308 7.53075,-6.5896 8.47223,-5.6482 8.47223,-5.6481 8.47223,-3.7652 10.35517,-3.7656 9.41336,-2.8241 10.35479,-0.9414 5.6485,-0.9412 h 4.7067 514.923 l 10.3551,0.9412 10.3549,0.9414 10.3548,2.8241 4.707,1.8826 4.7067,1.883 8.4722,3.7652 9.4137,5.6481 7.5308,5.6482 7.5307,6.5896 6.5896,7.5308 5.6482,8.4722 5.6482,8.4722 3.76551,8.4722 3.7655,9.4137 2.8238,10.3549 0.9415,10.3551 0.9414,4.7067 v 5.6482 386.89837 h 96.0186 3.7656 l 3.7652,-0.9415 3.7655,-0.9411 3.7652,-0.9415 3.7656,-1.8826 2.824,-1.883 2.8241,-2.8237 2.8241,-1.8829 4.707,-5.6482 1.8826,-3.7655 1.8826,-2.8241 1.883,-7.5308 0.9411,-7.5307 V 739.84433 361.4182 L 1011.5068,166.55697 H 896.66109 v 179.79938 10.35517 l -1.8826,10.35483 -2.8241,10.35483 -0.9414,4.70702 -1.8826,4.70668 -4.7071,9.4137 -4.7066,8.47223 -6.5897,7.53076 -6.5892,7.53075 -7.5311,6.58963 -7.5308,5.64815 -8.4722,5.64815 -9.4137,3.76555 -9.4134,3.76521 -9.4137,2.82407 -10.3548,1.88295 h -5.6482 -5.6481 -321.9447 -10.3551 l -10.3549,-1.88295 -10.3548,-2.82407 -4.707,-1.88261 -4.7067,-1.8826 -8.4722,-3.76555 -8.4723,-5.64815 -8.4722,-5.64815 -7.5307,-6.58963 -6.5897,-7.53075 -5.6481,-7.53076 -5.64817,-8.47223 -3.7652,-9.4137 -3.76555,-9.4137 -2.82408,-10.35483 -0.94147,-10.35483 -0.94147,-4.70702 V 346.35635 166.55697 H 193.46622 l -4.70668,0.94147 h -3.76555 l -3.76555,0.94113 -2.82373,1.88294 -3.76555,0.94114 -2.82408,1.88294 -3.76555,2.82408 -2.82407,1.8826 -4.70668,6.58962 -1.88295,2.82408 -0.94113,3.76521 -2.82407,6.58962 -0.94148,8.47223 v 456.5588 456.55917 l 0.94148,3.7652 v 3.7655 l 0.94113,3.7656 1.88294,3.7652 0.94113,2.8241 1.88295,3.7655 2.82407,2.8241 1.88261,2.8241 6.58962,4.7066 2.82408,1.883 3.76555,1.8826 6.58928,1.8826 8.47223,0.9415 h 95.0771 z"
       id="path856" />
  </g>
</svg>
