<?xml version="1.0" encoding="UTF-8" standalone="no"?>
<svg
   xmlns:dc="http://purl.org/dc/elements/1.1/"
   xmlns:cc="http://creativecommons.org/ns#"
   xmlns:rdf="http://www.w3.org/1999/02/22-rdf-syntax-ns#"
   xmlns:svg="http://www.w3.org/2000/svg"
   xmlns="http://www.w3.org/2000/svg"
   xmlns:sodipodi="http://sodipodi.sourceforge.net/DTD/sodipodi-0.dtd"
   xmlns:inkscape="http://www.inkscape.org/namespaces/inkscape"
   width="1297mm"
   height="1297mm"
   viewBox="0 0 1297 1297"
   version="1.1"
   id="svg2058"
   inkscape:version="1.0.2-2 (e86c870879, 2021-01-15)"
   sodipodi:docname="share.svg">
  <defs
     id="defs2052">
    <pattern
       id="EMFhbasepattern"
       patternUnits="userSpaceOnUse"
       width="6"
       height="6"
       x="0"
       y="0" />
    <pattern
       id="EMFhbasepattern-2"
       patternUnits="userSpaceOnUse"
       width="6"
       height="6"
       x="0"
       y="0" />
    <pattern
       id="EMFhbasepattern-3"
       patternUnits="userSpaceOnUse"
       width="6"
       height="6"
       x="0"
       y="0" />
    <pattern
       id="EMFhbasepattern-7"
       patternUnits="userSpaceOnUse"
       width="6"
       height="6"
       x="0"
       y="0" />
    <pattern
       id="EMFhbasepattern-77"
       patternUnits="userSpaceOnUse"
       width="6"
       height="6"
       x="0"
       y="0" />
    <pattern
       id="EMFhbasepattern-71"
       patternUnits="userSpaceOnUse"
       width="6"
       height="6"
       x="0"
       y="0" />
  </defs>
  <sodipodi:namedview
     id="base"
     pagecolor="#ffffff"
     bordercolor="#666666"
     borderopacity="1.0"
     inkscape:pageopacity="0.0"
     inkscape:pageshadow="2"
     inkscape:zoom="0.061871843"
     inkscape:cx="2265.4191"
     inkscape:cy="2639.0344"
     inkscape:document-units="mm"
     inkscape:current-layer="layer1"
     inkscape:document-rotation="0"
     showgrid="false"
     inkscape:window-width="1298"
     inkscape:window-height="1040"
     inkscape:window-x="208"
     inkscape:window-y="0"
     inkscape:window-maximized="0" />
  <metadata
     id="metadata2055">
    <rdf:RDF>
      <cc:Work
         rdf:about="">
        <dc:format>image/svg+xml</dc:format>
        <dc:type
           rdf:resource="http://purl.org/dc/dcmitype/StillImage" />
        <dc:title></dc:title>
      </cc:Work>
    </rdf:RDF>
  </metadata>
  <g
     inkscape:label="Capa 1"
     inkscape:groupmode="layer"
     id="layer1">
    <path
       style="fill:#000000;fill-opacity:1;fill-rule:evenodd;stroke:none;stroke-width:0.896827"
       d="m 728.17282,882.00881 v 11.25342 l 0.93791,11.25343 0.93792,11.25342 1.87538,11.25343 2.81341,10.31551 2.8133,11.25342 3.75133,10.31562 3.75088,9.37793 4.68913,10.31584 4.68891,9.3777 5.62671,9.37793 5.62672,9.37804 6.56451,8.4397 6.5643,8.4401 6.56462,8.44 7.50221,7.5026 7.50254,7.5022 8.44002,6.5645 8.44012,6.5643 8.44001,6.5646 9.37771,5.6267 9.37792,5.6267 9.37804,4.6893 10.31551,4.6888 10.31551,3.7508 10.31584,3.7513 10.31562,2.8134 10.31551,2.8133 11.25343,1.8755 11.25342,0.9379 11.25343,0.9379 11.25375,0.9376 12.19101,-0.9376 11.25342,-0.9379 11.25343,-0.9379 10.31584,-1.8755 11.25306,-2.8133 10.316,-2.8134 10.3155,-3.7513 10.3155,-3.7508 9.378,-4.6888 10.3159,-4.6893 9.3776,-5.6267 8.4401,-5.6267 9.3779,-6.5646 8.4402,-6.5643 7.5021,-6.5645 7.5022,-7.5022 7.5025,-7.5026 7.5022,-8.44 6.5646,-8.4401 6.5646,-8.4397 5.6263,-9.37804 4.6893,-9.37793 5.6267,-9.3777 3.7509,-10.31584 4.6891,-9.37793 2.8134,-10.31562 3.7512,-11.25342 1.8755,-10.31551 1.8754,-11.25343 1.8758,-11.25342 0.9376,-11.25343 v -11.25342 -11.25342 l -0.9376,-11.25343 -1.8758,-11.25342 -1.8754,-11.25354 -1.8755,-11.25342 -3.7512,-10.31584 -2.8134,-10.31551 -4.6891,-10.31551 -3.7509,-9.37804 -5.6267,-9.37793 -4.6893,-9.3777 -5.6263,-9.37793 -6.5646,-8.44013 -6.5646,-8.44001 -7.5022,-8.44012 -7.5025,-7.5021 -7.5022,-7.50254 -7.5021,-7.50221 -8.4402,-6.56463 -9.3779,-5.62671 -8.4401,-5.62671 -9.3776,-5.62671 -10.3159,-4.6888 -9.378,-4.6888 -10.3155,-3.75132 -10.3155,-3.75122 -10.316,-2.8133 -11.25306,-2.81341 -10.31584,-1.8755 -11.25343,-1.87538 -11.25342,-0.93792 h -12.19101 -11.25375 l -11.25343,0.93792 -11.25342,1.87538 -11.25343,1.8755 -10.31551,2.81341 -10.31562,2.8133 -10.31584,3.75122 -10.31551,3.75132 -10.31551,4.6888 -9.37804,4.6888 -9.37792,5.62671 -9.37771,5.62671 -8.44001,5.62671 -8.44012,6.56463 -8.44002,7.50221 -7.50254,7.50254 -7.50221,7.5021 -6.56462,8.44012 -6.5643,8.44001 -6.56451,8.44013 -5.62672,9.37793 -5.62671,9.3777 -4.68891,9.37793 -4.68913,9.37804 -3.75088,10.31551 -3.75133,10.31551 -2.8133,10.31584 -2.81341,11.25342 -1.87538,11.25354 -0.93792,11.25342 -0.93791,11.25343 z m -599.24534,-271.02032 0.93792,11.25343 1.87549,11.25342 2.81364,10.31551 3.75099,10.31595 4.6888,10.31551 2.8133,4.6888 2.81374,3.75122 6.5643,9.37803 6.56462,7.50221 8.44002,7.5021 3.75132,2.81341 4.6888,3.75122 9.37793,5.62671 9.3777,4.6888 10.31551,3.75132 5.62671,0.93792 4.68913,0.93747 5.62672,0.93791 5.62671,0.93792 5.62671,0.93758 h 5.62671 l 11.25343,-0.93758 11.25342,-1.87583 11.25343,-1.87539 10.31562,-3.75132 9.37792,-4.6888 4.6888,-2.8133 4.6888,-2.81341 8.44012,-6.56463 7.50254,-7.5021 7.5021,-7.50221 3.75133,-4.68913 2.8133,-4.6889 5.62671,-8.44002 4.68891,-10.31551 3.75121,-10.31595 0.93792,-4.6888 1.87538,-5.62671 0.93759,-5.62671 0.93791,-5.62671 v -5.62671 -5.62672 -11.25342 l -1.8755,-11.25342 -2.8133,-10.31551 -3.75121,-10.31596 -4.68891,-10.31551 -2.8133,-4.68879 -2.81341,-3.75122 -6.56463,-9.37804 -7.5021,-7.50221 -7.50254,-7.50209 -4.6888,-2.81342 -3.75132,-3.75121 -9.3776,-5.62671 -9.37792,-4.6888 -10.31562,-3.75133 -5.62672,-0.93791 -5.62671,-0.93747 -5.62671,-0.93792 -5.62671,-0.93791 -5.62671,-0.93758 h -5.62672 l -11.25342,0.93758 -11.25343,1.87583 -10.31584,1.87538 -10.31551,3.75133 -9.3777,4.6888 -4.68913,2.8133 -4.6888,2.81341 -8.44012,6.56463 -8.44002,7.50209 -6.56462,7.50221 -3.75133,4.68913 -2.81297,4.68891 -5.62704,8.44001 -4.6888,10.31551 -3.75099,10.31596 -1.87572,4.68879 -0.93792,5.62672 -0.93758,5.62671 -0.93791,5.62671 v 5.62671 z m 487.6489,-401.37233 v 11.25344 l 1.8755,11.25343 2.8133,10.31554 3.75132,10.31587 4.6888,9.37763 5.62671,8.44008 2.8133,4.68915 3.75133,3.75092 6.56463,8.44007 7.50209,6.56462 9.37804,6.56462 8.44001,5.62671 9.37771,4.68882 10.31584,3.75126 10.31551,2.81335 5.62671,0.93756 5.62672,0.93791 h 5.62671 5.62671 11.25342 l 11.25343,-1.87547 10.31562,-2.81335 10.31584,-3.75126 9.3776,-4.68882 9.37803,-5.62671 3.75122,-2.81336 4.6888,-3.75126 7.50221,-6.56462 6.56462,-8.44007 6.56463,-8.44007 5.62671,-8.44008 4.6888,-9.37763 3.75121,-10.31587 2.81342,-10.31554 0.93758,-5.62672 0.93791,-5.62671 v -5.62672 -5.62672 -11.25343 l -1.87549,-11.25344 -2.81342,-10.31553 -3.75121,-10.31587 -4.6888,-9.37763 -5.62671,-9.37797 -2.81341,-3.75126 -3.75122,-4.68882 -6.56462,-7.50218 -7.50221,-6.56461 -8.44002,-6.56462 -9.37803,-5.62671 -9.3776,-4.68882 -10.31584,-3.75126 -10.31562,-2.81336 -5.62671,-0.93756 -5.62672,-0.937903 h -5.62671 -5.62671 -11.25342 l -11.25343,1.875463 -10.31551,2.81336 -10.31584,3.75126 -9.37771,4.68882 -8.44001,5.62671 -4.68924,2.81336 -4.6888,3.75126 -7.50209,6.56461 -6.56463,7.50218 -6.56463,8.44008 -5.62671,9.37797 -4.6888,9.37763 -3.75132,10.31587 -2.8133,10.31553 -0.93759,5.62673 -0.93791,5.62671 v 5.62672 z m -240.07334,252.2643 189.43293,-161.29893 -4.68891,-10.31588 -4.68913,-10.31553 -3.75088,-10.31553 -3.75122,-11.25344 -1.87549,-11.25343 -1.87583,-11.25344 -0.93758,-11.25342 -0.93781,-12.19134 v -9.37797 l 0.93781,-9.37764 2.81341,-17.81804 1.87549,-9.37798 2.81331,-8.44007 2.81341,-8.44008 3.75121,-8.44007 7.50221,-15.94225 4.6888,-8.44008 4.68913,-6.56462 4.6888,-7.50218 5.62671,-7.502173 5.62671,-6.564615 6.56463,-5.626713 5.62671,-6.564615 6.56429,-5.626712 7.50254,-5.626723 7.50221,-4.68882 7.5021,-4.688809 7.50254,-4.689163 7.50221,-4.688819 8.44001,-2.813356 8.44013,-3.75126 8.44001,-2.813356 8.44012,-2.813356 9.37793,-1.875464 8.44012,-1.875452 9.3776,-0.937904 9.37804,-0.937892 h 9.37793 9.3777 l 9.37793,0.937892 18.75563,2.813356 8.44001,1.875464 8.44013,2.813356 9.37792,2.813356 7.50221,3.75126 16.88014,7.502175 7.50254,4.689163 7.50221,4.688809 6.56452,4.68882 7.5022,5.626723 6.56463,5.626712 6.5643,6.564615 5.62671,5.626713 5.62671,6.564615 5.62671,7.502173 5.62671,7.50218 4.68913,6.56462 3.751,8.44008 4.68913,7.50217 3.75088,8.44008 2.81341,8.44007 2.8133,8.44008 2.81341,8.44007 1.87572,9.37798 1.8755,8.44007 0.93791,9.37797 0.93759,9.37764 v 9.37797 9.37797 l -0.93759,9.37764 -2.81341,18.75594 -1.87572,8.44008 -2.81341,8.44008 -2.8133,9.37763 -2.81341,7.50252 -8.44001,16.88015 -3.751,7.50217 -4.68913,7.50218 -5.62671,6.56461 -5.62671,7.50218 -5.62671,6.56461 -5.62671,6.56464 -6.5643,5.62671 -6.56463,5.62672 -7.5022,5.62671 -6.56452,5.62671 -7.50221,4.6888 -7.50254,3.75088 -8.44001,4.68924 -8.44013,3.75088 -7.50221,2.81342 -9.37792,2.8133 -8.44013,2.81341 -8.44001,1.87572 -9.3777,1.87549 -9.37793,0.93792 -9.37793,0.93758 h -9.3777 l -15.00464,-0.93758 h -7.50221 l -7.50254,-1.87583 -7.5021,-0.93758 -7.50221,-1.87572 -14.06684,-3.751 -13.12925,-5.62671 -6.56418,-2.8133 -6.56463,-2.81341 -12.19134,-7.50254 -6.56429,-3.75088 -5.62672,-4.6888 -194.12173,165.98784 3.75088,9.37793 3.75133,10.3155 3.75122,10.31585 2.81341,10.31562 1.87538,11.25342 1.8755,11.25343 0.93791,11.25342 v 11.25342 8.44013 l -0.93791,8.44001 -1.8755,16.88014 -2.8133,15.94222 -2.81341,8.44012 -1.87538,7.50254 226.00617,70.33396 5.62671,-10.31584 4.68913,-10.31562 5.62671,-9.37793 6.5643,-9.3776 5.62671,-9.37803 6.56463,-9.37793 6.56462,-9.37771 7.50221,-8.44001 7.5021,-8.44012 7.50254,-7.50254 8.44013,-8.44002 8.44001,-7.50221 16.88014,-14.06672 9.3777,-6.56463 9.37793,-6.56429 9.37804,-5.62671 9.37759,-5.62672 10.31584,-5.62671 10.31551,-4.68924 10.31562,-4.6888 10.31585,-4.68879 10.3155,-3.75122 11.25343,-3.75132 11.25342,-2.81331 11.25343,-2.81341 11.25342,-2.8133 11.25354,-1.87549 12.19122,-0.93792 11.25354,-0.93758 12.19089,-0.9378 h 12.19134 15.94234 l 16.88013,0.9378 7.50254,0.93758 8.44002,1.87583 15.00426,2.81341 15.9427,2.8133 15.0043,4.6888 15.0048,4.6888 14.0667,5.62671 14.0668,6.56463 14.0668,7.50221 13.1289,7.50254 13.1292,8.44001 12.1914,8.44012 6.5643,4.6888 5.6267,4.6888 11.2534,10.31595 11.2534,10.31551 10.3155,11.25342 10.3159,11.25343 9.378,12.19134 9.3776,12.191 7.5022,13.12926 8.4401,13.12881 6.5646,14.06683 6.5646,14.06684 2.8134,7.5021 2.8133,7.50254 4.6889,14.06683 4.6888,15.00431 3.7512,15.94255 0.9379,7.50221 1.8755,8.44013 1.8754,15.94222 0.9379,15.94255 0.9379,15.94222 -0.9379,16.88025 -0.9379,15.94222 -0.9376,8.44001 -0.9378,7.50255 -2.8134,15.94222 -3.7512,15.00475 -4.6888,15.00464 -4.6889,15.00441 -5.6267,15.00467 -6.5646,14.0668 -6.5646,13.1288 -8.4401,14.0669 -7.5022,12.1913 -9.3776,13.1289 -4.6891,5.6267 -4.6889,5.6267 -10.3159,12.1914 -10.3155,11.2534 -11.2534,10.3155 -11.2534,10.3155 -12.191,9.3781 -12.1914,8.44 -13.1292,8.4401 -13.1289,7.5022 -14.0668,7.5024 -14.0668,5.6267 -6.5643,3.751 -7.5024,2.8137 -15.0048,4.6888 -15.0043,3.7513 -15.9427,3.7509 -7.5021,1.8758 -7.50216,0.9376 -15.94256,1.8754 -16.88013,1.8758 h -15.94234 -16.88013 l -15.94222,-1.8758 -7.50255,-0.9376 -8.44001,-0.9378 -15.94233,-2.8134 -15.00464,-3.7509 -15.00431,-3.7513 -15.00475,-4.6888 -14.06672,-6.5647 -14.06684,-5.6267 -14.06683,-7.5024 -13.12881,-7.5022 -13.12926,-8.4401 -12.191,-8.44 -6.56463,-4.6888 -5.62671,-4.6893 -12.19134,-10.3155 -10.31551,-10.3155 -11.25342,-11.2534 -9.37804,-12.1914 -9.3776,-11.2534 -9.37792,-13.1289 -8.44013,-12.1913 -7.50221,-14.0669 -6.56462,-13.1288 -6.56463,-14.0668 -2.8133,-7.50257 -2.81341,-7.5021 -5.62671,-15.00441 -3.75089,-15.00464 -3.75121,-15.00475 -1.8755,-7.5021 -0.93791,-8.44012 -1.8755,-15.94256 -0.9378,-15.94222 -0.93792,-16.88025 0.93792,-14.06672 0.9378,-14.06684 0.93758,-14.06672 2.81341,-14.06684 -244.76214,-75.96067 -7.50221,7.50221 -7.50221,7.50243 -7.50254,6.5643 -8.43968,6.56462 -8.44045,5.62672 -8.44002,5.62671 -9.3777,4.6888 -9.37793,4.68924 -9.37793,3.75088 -10.31562,3.75122 -10.31551,2.81341 -10.31551,2.8133 -10.31584,1.87549 -5.62671,0.93792 -4.68891,0.93791 -11.25342,0.93759 h -11.25343 -10.31551 l -10.31584,-0.93759 -10.31562,-0.93791 -9.37793,-1.8755 -10.31551,-2.8133 -9.37803,-2.81341 -9.37793,-2.8133 -9.3776,-3.75133 -8.44012,-3.75121 -8.44001,-4.6888 -8.44013,-4.6888 -8.44012,-5.62671 -8.44001,-5.62682 -7.50254,-5.62671 -6.5643,-6.56452 -7.502428,-6.56463 -6.564294,-6.56429 -6.564627,-7.50254 -5.626712,-7.50221 -5.626712,-8.44001 -5.626712,-7.50221 -4.688908,-8.44002 -4.68913,-9.37803 -3.750883,-8.44002 -3.751215,-9.37803 -2.813412,-9.3776 -2.813411,-9.37804 -2.813301,-10.31551 -0.937914,-9.37792 L 39.837894,631.61985 38.90009,621.304 v -10.31551 -10.31551 l 0.937804,-10.31595 1.875497,-10.31551 0.937914,-9.37793 2.813301,-10.3155 2.813411,-9.37804 2.813412,-9.3776 3.751215,-9.37804 3.750883,-8.44001 4.68913,-8.44012 4.688908,-8.44001 5.626712,-8.44013 5.626712,-7.50221 5.626712,-8.44001 6.564627,-6.56463 6.564294,-7.50221 7.502428,-6.56462 6.5643,-6.56452 7.50254,-5.62682 8.44001,-5.62671 8.44012,-5.62672 8.44013,-4.68879 8.44001,-4.6888 8.44012,-3.75122 9.3776,-3.75132 9.37793,-2.8133 9.37803,-2.81341 10.31551,-1.87539 9.37793,-1.8755 10.31562,-1.87583 10.31584,-0.93758 h 10.31551 9.37771 l 10.31584,0.93758 9.37793,0.93792 9.3777,1.8755 9.37793,1.87571 8.44012,2.81342 9.37793,2.8133 8.43979,2.81341 8.44035,3.75088 8.43979,3.75133 7.50243,4.68879 8.44012,4.68913 7.50221,4.6888 7.50243,5.62671 z"
       id="path2689" />
  </g>
</svg>
